%TF.GenerationSoftware,KiCad,Pcbnew,9.0.4*%
%TF.CreationDate,2025-10-14T13:55:39+03:00*%
%TF.ProjectId,Telega_KiCad,54656c65-6761-45f4-9b69-4361642e6b69,rev?*%
%TF.SameCoordinates,Original*%
%TF.FileFunction,Copper,L2,Bot*%
%TF.FilePolarity,Positive*%
%FSLAX46Y46*%
G04 Gerber Fmt 4.6, Leading zero omitted, Abs format (unit mm)*
G04 Created by KiCad (PCBNEW 9.0.4) date 2025-10-14 13:55:39*
%MOMM*%
%LPD*%
G01*
G04 APERTURE LIST*
G04 Aperture macros list*
%AMRoundRect*
0 Rectangle with rounded corners*
0 $1 Rounding radius*
0 $2 $3 $4 $5 $6 $7 $8 $9 X,Y pos of 4 corners*
0 Add a 4 corners polygon primitive as box body*
4,1,4,$2,$3,$4,$5,$6,$7,$8,$9,$2,$3,0*
0 Add four circle primitives for the rounded corners*
1,1,$1+$1,$2,$3*
1,1,$1+$1,$4,$5*
1,1,$1+$1,$6,$7*
1,1,$1+$1,$8,$9*
0 Add four rect primitives between the rounded corners*
20,1,$1+$1,$2,$3,$4,$5,0*
20,1,$1+$1,$4,$5,$6,$7,0*
20,1,$1+$1,$6,$7,$8,$9,0*
20,1,$1+$1,$8,$9,$2,$3,0*%
G04 Aperture macros list end*
%TA.AperFunction,ComponentPad*%
%ADD10C,2.400000*%
%TD*%
%TA.AperFunction,ComponentPad*%
%ADD11RoundRect,0.250000X-0.845000X0.620000X-0.845000X-0.620000X0.845000X-0.620000X0.845000X0.620000X0*%
%TD*%
%TA.AperFunction,ComponentPad*%
%ADD12O,2.190000X1.740000*%
%TD*%
%TA.AperFunction,ComponentPad*%
%ADD13R,2.500000X1.700000*%
%TD*%
%TA.AperFunction,ComponentPad*%
%ADD14O,2.500000X1.700000*%
%TD*%
%TA.AperFunction,ComponentPad*%
%ADD15C,6.400000*%
%TD*%
%TA.AperFunction,ComponentPad*%
%ADD16RoundRect,0.250000X-1.125000X1.125000X-1.125000X-1.125000X1.125000X-1.125000X1.125000X1.125000X0*%
%TD*%
%TA.AperFunction,ComponentPad*%
%ADD17C,2.750000*%
%TD*%
%TA.AperFunction,ComponentPad*%
%ADD18R,1.600000X1.600000*%
%TD*%
%TA.AperFunction,ComponentPad*%
%ADD19C,1.600000*%
%TD*%
%TA.AperFunction,ComponentPad*%
%ADD20C,4.000000*%
%TD*%
%TA.AperFunction,ComponentPad*%
%ADD21RoundRect,0.250000X0.550000X0.550000X-0.550000X0.550000X-0.550000X-0.550000X0.550000X-0.550000X0*%
%TD*%
%TA.AperFunction,ComponentPad*%
%ADD22C,2.600000*%
%TD*%
%TA.AperFunction,ComponentPad*%
%ADD23RoundRect,0.250000X1.125000X1.125000X-1.125000X1.125000X-1.125000X-1.125000X1.125000X-1.125000X0*%
%TD*%
%TA.AperFunction,ComponentPad*%
%ADD24RoundRect,0.250000X-0.550000X-0.550000X0.550000X-0.550000X0.550000X0.550000X-0.550000X0.550000X0*%
%TD*%
%TA.AperFunction,ComponentPad*%
%ADD25RoundRect,0.250000X-0.620000X-0.845000X0.620000X-0.845000X0.620000X0.845000X-0.620000X0.845000X0*%
%TD*%
%TA.AperFunction,ComponentPad*%
%ADD26O,1.740000X2.190000*%
%TD*%
%TA.AperFunction,ComponentPad*%
%ADD27RoundRect,0.250000X1.350000X1.350000X-1.350000X1.350000X-1.350000X-1.350000X1.350000X-1.350000X0*%
%TD*%
%TA.AperFunction,ComponentPad*%
%ADD28C,3.200000*%
%TD*%
%TA.AperFunction,ComponentPad*%
%ADD29RoundRect,0.250002X1.699998X-1.699998X1.699998X1.699998X-1.699998X1.699998X-1.699998X-1.699998X0*%
%TD*%
%TA.AperFunction,ComponentPad*%
%ADD30C,3.900000*%
%TD*%
%TA.AperFunction,ComponentPad*%
%ADD31C,1.905000*%
%TD*%
%TA.AperFunction,ComponentPad*%
%ADD32RoundRect,0.250000X1.125000X-1.125000X1.125000X1.125000X-1.125000X1.125000X-1.125000X-1.125000X0*%
%TD*%
%TA.AperFunction,ComponentPad*%
%ADD33RoundRect,0.250000X-1.350000X1.350000X-1.350000X-1.350000X1.350000X-1.350000X1.350000X1.350000X0*%
%TD*%
%TA.AperFunction,ComponentPad*%
%ADD34R,2.000000X1.905000*%
%TD*%
%TA.AperFunction,ComponentPad*%
%ADD35O,2.000000X1.905000*%
%TD*%
%TA.AperFunction,ComponentPad*%
%ADD36RoundRect,0.250000X-1.350000X-1.350000X1.350000X-1.350000X1.350000X1.350000X-1.350000X1.350000X0*%
%TD*%
%TA.AperFunction,ComponentPad*%
%ADD37RoundRect,0.250000X0.620000X0.845000X-0.620000X0.845000X-0.620000X-0.845000X0.620000X-0.845000X0*%
%TD*%
%TA.AperFunction,ComponentPad*%
%ADD38C,2.010000*%
%TD*%
%TA.AperFunction,ViaPad*%
%ADD39C,0.600000*%
%TD*%
%TA.AperFunction,ViaPad*%
%ADD40C,2.000000*%
%TD*%
%TA.AperFunction,Conductor*%
%ADD41C,2.000000*%
%TD*%
%TA.AperFunction,Conductor*%
%ADD42C,0.500000*%
%TD*%
%TA.AperFunction,Conductor*%
%ADD43C,1.000000*%
%TD*%
%TA.AperFunction,Conductor*%
%ADD44C,0.750000*%
%TD*%
G04 APERTURE END LIST*
D10*
%TO.P,R504,1*%
%TO.N,+5V*%
X217630000Y-142600000D03*
%TO.P,R504,2*%
%TO.N,Net-(D504-K)*%
X217630000Y-168000000D03*
%TD*%
%TO.P,R503,1*%
%TO.N,/+15V*%
X210380000Y-142600000D03*
%TO.P,R503,2*%
%TO.N,Net-(D503-K)*%
X210380000Y-168000000D03*
%TD*%
%TO.P,R505,1*%
%TO.N,/Led_Orange*%
X224900000Y-142600000D03*
%TO.P,R505,2*%
%TO.N,Net-(D505-K)*%
X224900000Y-168000000D03*
%TD*%
D11*
%TO.P,J501,1,Pin_1*%
%TO.N,/PowerLedSheme/+24V*%
X64750000Y-174750000D03*
D12*
%TO.P,J501,2,Pin_2*%
%TO.N,GND*%
X64750000Y-177290000D03*
%TD*%
D13*
%TO.P,Converter_DCDC-24V/15V501,1,Vin*%
%TO.N,Net-(Converter_DCDC-24V/15V501-Vin)*%
X62292500Y-104872500D03*
D14*
%TO.P,Converter_DCDC-24V/15V501,2,GND*%
%TO.N,GND*%
X62292500Y-102332500D03*
%TO.P,Converter_DCDC-24V/15V501,3,Vout*%
%TO.N,/+15V*%
X62292500Y-99792500D03*
%TD*%
D15*
%TO.P,REF\u002A\u002A,1*%
%TO.N,GND*%
X140000000Y-120000000D03*
%TD*%
D16*
%TO.P,D505,1,K*%
%TO.N,Net-(D505-K)*%
X225020000Y-172500000D03*
D17*
%TO.P,D505,2,A*%
%TO.N,GND*%
X225020000Y-177900000D03*
%TD*%
D16*
%TO.P,GPS_RS232_Repeater601,1,Pin_1*%
%TO.N,/+15V*%
X162500000Y-155500000D03*
D17*
%TO.P,GPS_RS232_Repeater601,2,Pin_2*%
%TO.N,+5V*%
X162500000Y-160900000D03*
%TO.P,GPS_RS232_Repeater601,3,Pin_3*%
%TO.N,/GPS_TxD_Repeater*%
X162500000Y-166300000D03*
%TO.P,GPS_RS232_Repeater601,4,Pin_4*%
%TO.N,/GPS_RxD_Repeater*%
X162500000Y-171700000D03*
%TO.P,GPS_RS232_Repeater601,5,Pin_5*%
%TO.N,GND*%
X162500000Y-177100000D03*
%TD*%
D18*
%TO.P,J601,1,VBUS*%
%TO.N,/Led_Orange*%
X141250000Y-174712500D03*
D19*
%TO.P,J601,2,D-*%
%TO.N,Net-(J601-D-)*%
X138750000Y-174712500D03*
%TO.P,J601,3,D+*%
%TO.N,Net-(J601-D+)*%
X138750000Y-176712500D03*
%TO.P,J601,4,GND*%
%TO.N,GND*%
X141250000Y-176712500D03*
D20*
%TO.P,J601,5,Shield*%
%TO.N,GND1*%
X146000000Y-179572500D03*
X134000000Y-179572500D03*
%TD*%
D15*
%TO.P,REF\u002A\u002A,1*%
%TO.N,GND*%
X162500000Y-185000000D03*
%TD*%
D21*
%TO.P,C504,1*%
%TO.N,+5V*%
X90652651Y-130250000D03*
D19*
%TO.P,C504,2*%
%TO.N,GND*%
X85652651Y-130250000D03*
%TD*%
D22*
%TO.P,L501,1*%
%TO.N,Net-(F501-Pad2)*%
X65000000Y-132500000D03*
%TO.P,L501,2*%
%TO.N,Net-(Converter_DCDC-24V/15V501-Vin)*%
X65000000Y-127500000D03*
%TD*%
D15*
%TO.P,REF\u002A\u002A,1*%
%TO.N,GND*%
X55000000Y-184750000D03*
%TD*%
D16*
%TO.P,Reserved_RS232_601,1,Pin_1*%
%TO.N,/+15V*%
X106226190Y-57925000D03*
D17*
%TO.P,Reserved_RS232_601,2,Pin_2*%
%TO.N,+5V*%
X106226190Y-63325000D03*
%TO.P,Reserved_RS232_601,3,Pin_3*%
%TO.N,/Reserved_RS232_TxD_2*%
X106226190Y-68725000D03*
%TO.P,Reserved_RS232_601,4,Pin_4*%
%TO.N,/Reserved_RS232_RxD_2*%
X106226190Y-74125000D03*
%TO.P,Reserved_RS232_601,5,Pin_5*%
%TO.N,GND*%
X106226190Y-79525000D03*
%TD*%
D23*
%TO.P,J506,1,Pin_1*%
%TO.N,GND*%
X179000000Y-55000000D03*
D17*
%TO.P,J506,2,Pin_2*%
X173600000Y-55000000D03*
%TO.P,J506,3,Pin_3*%
X168200000Y-55000000D03*
%TO.P,J506,4,Pin_4*%
X162800000Y-55000000D03*
%TO.P,J506,5,Pin_5*%
X157400000Y-55000000D03*
%TD*%
D20*
%TO.P,DPP_TW_601,0,PAD*%
%TO.N,GND1*%
X75540000Y-180844669D03*
X100540000Y-180844669D03*
D18*
%TO.P,DPP_TW_601,1,1*%
%TO.N,GND*%
X82500000Y-179424669D03*
D19*
%TO.P,DPP_TW_601,2,2*%
%TO.N,/Connectors/+12V*%
X85270000Y-179424669D03*
%TO.P,DPP_TW_601,3,3*%
%TO.N,+5V*%
X88040000Y-179424669D03*
%TO.P,DPP_TW_601,4,4*%
%TO.N,GND1*%
X90810000Y-179424669D03*
%TO.P,DPP_TW_601,5,5*%
%TO.N,/DPP_CH1*%
X93580000Y-179424669D03*
%TO.P,DPP_TW_601,6,6*%
%TO.N,/DPP_CH2*%
X83885000Y-182264669D03*
%TO.P,DPP_TW_601,7,7*%
%TO.N,unconnected-(DPP_TW_601-Pad7)*%
X86655000Y-182264669D03*
%TO.P,DPP_TW_601,8,8*%
%TO.N,/Track_Width*%
X89425000Y-182264669D03*
%TO.P,DPP_TW_601,9,9*%
%TO.N,GND*%
X92195000Y-182264669D03*
%TD*%
D22*
%TO.P,L502,1*%
%TO.N,Net-(D506-A)*%
X88500000Y-87500000D03*
%TO.P,L502,2*%
%TO.N,Net-(Converter_DCDC-12V/5V501-Vin)*%
X88500000Y-92500000D03*
%TD*%
D24*
%TO.P,C502,1*%
%TO.N,/+15V*%
X62347349Y-87500000D03*
D19*
%TO.P,C502,2*%
%TO.N,GND*%
X67347349Y-87500000D03*
%TD*%
D21*
%TO.P,C503,1*%
%TO.N,Net-(Converter_DCDC-12V/5V501-Vin)*%
X90652651Y-103000000D03*
D19*
%TO.P,C503,2*%
%TO.N,GND*%
X85652651Y-103000000D03*
%TD*%
D10*
%TO.P,R510,1*%
%TO.N,/PowerLedSheme/+24V*%
X112320000Y-162750000D03*
%TO.P,R510,2*%
%TO.N,Net-(SW501-A)*%
X71680000Y-162750000D03*
%TD*%
D19*
%TO.P,R205,1*%
%TO.N,/Track_Width*%
X200700000Y-103750000D03*
%TO.P,R205,2*%
%TO.N,Net-(U201-PD14)*%
X200700000Y-118990000D03*
%TD*%
D21*
%TO.P,C201,1*%
%TO.N,Net-(U201-PC1)*%
X125902651Y-145250000D03*
D19*
%TO.P,C201,2*%
%TO.N,GND*%
X120902651Y-145250000D03*
%TD*%
%TO.P,R202,1*%
%TO.N,Net-(U201-PC1)*%
X131250000Y-152630000D03*
%TO.P,R202,2*%
%TO.N,GND*%
X131250000Y-167870000D03*
%TD*%
D16*
%TO.P,Reserved_RS232_602,1,Pin_1*%
%TO.N,/+15V*%
X106250000Y-87260714D03*
D17*
%TO.P,Reserved_RS232_602,2,Pin_2*%
%TO.N,+5V*%
X106250000Y-92660714D03*
%TO.P,Reserved_RS232_602,3,Pin_3*%
%TO.N,/Reserved_RS232_TxD_3*%
X106250000Y-98060714D03*
%TO.P,Reserved_RS232_602,4,Pin_4*%
%TO.N,/Reserved_RS232_RxD_3*%
X106250000Y-103460714D03*
%TO.P,Reserved_RS232_602,5,Pin_5*%
%TO.N,GND*%
X106250000Y-108860714D03*
%TD*%
D25*
%TO.P,J602,1,Pin_1*%
%TO.N,/Control_Ch1*%
X177920000Y-146000000D03*
D26*
%TO.P,J602,2,Pin_2*%
%TO.N,/Control_Ch2*%
X180460000Y-146000000D03*
%TO.P,J602,3,Pin_3*%
%TO.N,/Control_Ch3*%
X183000000Y-146000000D03*
%TO.P,J602,4,Pin_4*%
%TO.N,/Control_Ch4*%
X185540000Y-146000000D03*
%TO.P,J602,5,Pin_5*%
%TO.N,/Control_Ch5*%
X188080000Y-146000000D03*
%TO.P,J602,6,Pin_6*%
%TO.N,+5V*%
X190620000Y-146000000D03*
%TO.P,J602,7,Pin_7*%
X193160000Y-146000000D03*
%TO.P,J602,8,Pin_8*%
%TO.N,GND*%
X195700000Y-146000000D03*
%TD*%
D27*
%TO.P,D501,1,K*%
%TO.N,Net-(D501-K)*%
X77500000Y-74000000D03*
D28*
%TO.P,D501,2,A*%
%TO.N,/+15V*%
X62260000Y-74000000D03*
%TD*%
D29*
%TO.P,SW502,1,A*%
%TO.N,Net-(SW502-A)*%
X55750000Y-166850000D03*
D30*
%TO.P,SW502,2,B*%
%TO.N,Net-(D506-A)*%
X55750000Y-159050000D03*
%TD*%
D31*
%TO.P,U201,1,GND*%
%TO.N,GND*%
X120910000Y-130000000D03*
%TO.P,U201,2,GND*%
X123410000Y-130000000D03*
%TO.P,U201,3,3V*%
%TO.N,+3.3V*%
X151450000Y-130000000D03*
%TO.P,U201,4,3V*%
X151450000Y-127460000D03*
%TO.P,U201,5,GND*%
%TO.N,unconnected-(U201-GND-Pad5)*%
X153990000Y-130000000D03*
%TO.P,U201,6,NRST*%
%TO.N,unconnected-(U201-NRST-Pad6)*%
X153990000Y-127460000D03*
%TO.P,U201,7,PC1*%
%TO.N,Net-(U201-PC1)*%
X156530000Y-130000000D03*
%TO.P,U201,8,PC0*%
%TO.N,unconnected-(U201-PC0-Pad8)*%
X156530000Y-127460000D03*
%TO.P,U201,9,PC3*%
%TO.N,Net-(U201-PC3)*%
X159070000Y-130000000D03*
%TO.P,U201,10,PC2*%
%TO.N,unconnected-(U201-PC2-Pad10)*%
X159070000Y-127460000D03*
%TO.P,U201,11,PA1*%
%TO.N,unconnected-(U201-PA1-Pad11)*%
X161610000Y-130000000D03*
%TO.P,U201,12,PF2*%
%TO.N,unconnected-(U201-PF2-Pad12)*%
X161610000Y-127460000D03*
%TO.P,U201,13,PA3*%
%TO.N,unconnected-(U201-PA3-Pad13)*%
X164150000Y-130000000D03*
%TO.P,U201,14,PA0*%
%TO.N,unconnected-(U201-PA0-Pad14)*%
X164150000Y-127460000D03*
%TO.P,U201,15,PF4*%
%TO.N,unconnected-(U201-PF4-Pad15)*%
X166690000Y-130000000D03*
%TO.P,U201,16,PA2*%
%TO.N,unconnected-(U201-PA2-Pad16)*%
X166690000Y-127460000D03*
%TO.P,U201,17,PA5*%
%TO.N,unconnected-(U201-PA5-Pad17)*%
X169230000Y-130000000D03*
%TO.P,U201,18,PA4*%
%TO.N,unconnected-(U201-PA4-Pad18)*%
X169230000Y-127460000D03*
%TO.P,U201,19,PA7*%
%TO.N,unconnected-(U201-PA7-Pad19)*%
X171770000Y-130000000D03*
%TO.P,U201,20,PA6*%
%TO.N,unconnected-(U201-PA6-Pad20)*%
X171770000Y-127460000D03*
%TO.P,U201,21,PC5*%
%TO.N,unconnected-(U201-PC5-Pad21)*%
X174310000Y-130000000D03*
%TO.P,U201,22,PC4*%
%TO.N,unconnected-(U201-PC4-Pad22)*%
X174310000Y-127460000D03*
%TO.P,U201,23,PB1*%
%TO.N,unconnected-(U201-PB1-Pad23)*%
X176850000Y-130000000D03*
%TO.P,U201,24,PB0*%
%TO.N,unconnected-(U201-PB0-Pad24)*%
X176850000Y-127460000D03*
%TO.P,U201,25,PE7*%
%TO.N,unconnected-(U201-PE7-Pad25)*%
X179390000Y-130000000D03*
%TO.P,U201,26,PB2*%
%TO.N,unconnected-(U201-PB2-Pad26)*%
X179390000Y-127460000D03*
%TO.P,U201,27,PE9*%
%TO.N,unconnected-(U201-PE9-Pad27)*%
X181930000Y-130000000D03*
%TO.P,U201,28,PE8*%
%TO.N,unconnected-(U201-PE8-Pad28)*%
X181930000Y-127460000D03*
%TO.P,U201,29,PE11*%
%TO.N,unconnected-(U201-PE11-Pad29)*%
X184470000Y-130000000D03*
%TO.P,U201,30,PE10*%
%TO.N,unconnected-(U201-PE10-Pad30)*%
X184470000Y-127460000D03*
%TO.P,U201,31,PE13*%
%TO.N,unconnected-(U201-PE13-Pad31)*%
X187010000Y-130000000D03*
%TO.P,U201,32,PE12*%
%TO.N,unconnected-(U201-PE12-Pad32)*%
X187010000Y-127460000D03*
%TO.P,U201,33,PE15*%
%TO.N,unconnected-(U201-PE15-Pad33)*%
X189550000Y-130000000D03*
%TO.P,U201,34,PE14*%
%TO.N,unconnected-(U201-PE14-Pad34)*%
X189550000Y-127460000D03*
%TO.P,U201,35,PB11*%
%TO.N,/USART3_RX*%
X192090000Y-130000000D03*
%TO.P,U201,36,PB10*%
%TO.N,/USART3_TX*%
X192090000Y-127460000D03*
%TO.P,U201,37,PB13*%
%TO.N,unconnected-(U201-PB13-Pad37)*%
X194630000Y-130000000D03*
%TO.P,U201,38,PB12*%
%TO.N,unconnected-(U201-PB12-Pad38)*%
X194630000Y-127460000D03*
%TO.P,U201,39,PB15*%
%TO.N,/Control_Ch1*%
X197170000Y-130000000D03*
%TO.P,U201,40,PB14*%
%TO.N,unconnected-(U201-PB14-Pad40)*%
X197170000Y-127460000D03*
%TO.P,U201,41,PD9*%
%TO.N,/Control_Ch2*%
X199710000Y-130000000D03*
%TO.P,U201,42,PD8*%
%TO.N,unconnected-(U201-PD8-Pad42)*%
X199710000Y-127460000D03*
%TO.P,U201,43,PD11*%
%TO.N,/Control_Ch3*%
X202250000Y-130000000D03*
%TO.P,U201,44,PD10*%
%TO.N,unconnected-(U201-PD10-Pad44)*%
X202250000Y-127460000D03*
%TO.P,U201,45,PD13*%
%TO.N,/Control_Ch4*%
X204790000Y-130000000D03*
%TO.P,U201,46,PD12*%
%TO.N,unconnected-(U201-PD12-Pad46)*%
X204790000Y-127460000D03*
%TO.P,U201,47,PD15*%
%TO.N,/Control_Ch5*%
X207330000Y-130000000D03*
%TO.P,U201,48,PD14*%
%TO.N,Net-(U201-PD14)*%
X207330000Y-127460000D03*
%TO.P,U201,49,PC6*%
%TO.N,unconnected-(U201-PC6-Pad49)*%
X209870000Y-130000000D03*
%TO.P,U201,50,PC7*%
%TO.N,unconnected-(U201-PC7-Pad50)*%
X209870000Y-127460000D03*
%TO.P,U201,51,GND*%
%TO.N,GND*%
X212410000Y-130000000D03*
%TO.P,U201,52,GND*%
X212410000Y-127460000D03*
%TO.P,U201,53,GND*%
X133870000Y-76540000D03*
%TO.P,U201,54,GND*%
X136370000Y-76540000D03*
%TO.P,U201,55,5V*%
%TO.N,+5V*%
X151450000Y-79040000D03*
%TO.P,U201,56,5V*%
X151450000Y-76500000D03*
%TO.P,U201,57,PF9*%
%TO.N,unconnected-(U201-PF9-Pad57)*%
X153990000Y-79040000D03*
%TO.P,U201,58,PF10*%
%TO.N,unconnected-(U201-PF10-Pad58)*%
X153990000Y-76500000D03*
%TO.P,U201,59,PF0*%
%TO.N,unconnected-(U201-PF0-Pad59)*%
X156530000Y-79040000D03*
%TO.P,U201,60,PF1*%
%TO.N,unconnected-(U201-PF1-Pad60)*%
X156530000Y-76500000D03*
%TO.P,U201,61,PC14*%
%TO.N,unconnected-(U201-PC14-Pad61)*%
X159070000Y-79040000D03*
%TO.P,U201,62,PC15*%
%TO.N,unconnected-(U201-PC15-Pad62)*%
X159070000Y-76500000D03*
%TO.P,U201,63,PE6*%
%TO.N,unconnected-(U201-PE6-Pad63)*%
X161610000Y-79040000D03*
%TO.P,U201,64,PC13*%
%TO.N,unconnected-(U201-PC13-Pad64)*%
X161610000Y-76500000D03*
%TO.P,U201,65,PE4*%
%TO.N,unconnected-(U201-PE4-Pad65)*%
X164150000Y-79040000D03*
%TO.P,U201,66,PE5*%
%TO.N,unconnected-(U201-PE5-Pad66)*%
X164150000Y-76500000D03*
%TO.P,U201,67,PE2*%
%TO.N,unconnected-(U201-PE2-Pad67)*%
X166690000Y-79040000D03*
%TO.P,U201,68,PE3*%
%TO.N,unconnected-(U201-PE3-Pad68)*%
X166690000Y-76500000D03*
%TO.P,U201,69,PE0*%
%TO.N,unconnected-(U201-PE0-Pad69)*%
X169230000Y-79040000D03*
%TO.P,U201,70,PE1*%
%TO.N,unconnected-(U201-PE1-Pad70)*%
X169230000Y-76500000D03*
%TO.P,U201,71,PB8*%
%TO.N,unconnected-(U201-PB8-Pad71)*%
X171770000Y-79040000D03*
%TO.P,U201,72,PB9*%
%TO.N,unconnected-(U201-PB9-Pad72)*%
X171770000Y-76500000D03*
%TO.P,U201,73,BOOT0*%
%TO.N,unconnected-(U201-BOOT0-Pad73)*%
X174310000Y-79040000D03*
%TO.P,U201,74,VDD*%
%TO.N,unconnected-(U201-VDD-Pad74)*%
X174310000Y-76500000D03*
%TO.P,U201,75,PB6*%
%TO.N,unconnected-(U201-PB6-Pad75)*%
X176850000Y-79040000D03*
%TO.P,U201,76,PB7*%
%TO.N,unconnected-(U201-PB7-Pad76)*%
X176850000Y-76500000D03*
%TO.P,U201,77,PB4*%
%TO.N,unconnected-(U201-PB4-Pad77)*%
X179390000Y-79040000D03*
%TO.P,U201,78,PB5*%
%TO.N,unconnected-(U201-PB5-Pad78)*%
X179390000Y-76500000D03*
%TO.P,U201,79,PD7*%
%TO.N,unconnected-(U201-PD7-Pad79)*%
X181930000Y-79040000D03*
%TO.P,U201,80,PB3*%
%TO.N,unconnected-(U201-PB3-Pad80)*%
X181930000Y-76500000D03*
%TO.P,U201,81,PD5*%
%TO.N,unconnected-(U201-PD5-Pad81)*%
X184470000Y-79040000D03*
%TO.P,U201,82,PD6*%
%TO.N,unconnected-(U201-PD6-Pad82)*%
X184470000Y-76500000D03*
%TO.P,U201,83,PD3*%
%TO.N,unconnected-(U201-PD3-Pad83)*%
X187010000Y-79040000D03*
%TO.P,U201,84,PD4*%
%TO.N,unconnected-(U201-PD4-Pad84)*%
X187010000Y-76500000D03*
%TO.P,U201,85,PD1*%
%TO.N,unconnected-(U201-PD1-Pad85)*%
X189550000Y-79040000D03*
%TO.P,U201,86,PD2*%
%TO.N,unconnected-(U201-PD2-Pad86)*%
X189550000Y-76500000D03*
%TO.P,U201,87,PC12*%
%TO.N,unconnected-(U201-PC12-Pad87)*%
X192090000Y-79040000D03*
%TO.P,U201,88,PD0*%
%TO.N,unconnected-(U201-PD0-Pad88)*%
X192090000Y-76500000D03*
%TO.P,U201,89,PC10*%
%TO.N,unconnected-(U201-PC10-Pad89)*%
X194630000Y-79040000D03*
%TO.P,U201,90,PC11*%
%TO.N,unconnected-(U201-PC11-Pad90)*%
X194630000Y-76500000D03*
%TO.P,U201,91,PA14*%
%TO.N,/USART2_TX*%
X197170000Y-79040000D03*
%TO.P,U201,92,PA15*%
%TO.N,/USART2_RX*%
X197170000Y-76500000D03*
%TO.P,U201,93,PF6*%
%TO.N,unconnected-(U201-PF6-Pad93)*%
X199710000Y-79040000D03*
%TO.P,U201,94,PA13*%
%TO.N,unconnected-(U201-PA13-Pad94)*%
X199710000Y-76500000D03*
%TO.P,U201,95,PA12*%
%TO.N,/USB_D+*%
X202250000Y-79040000D03*
%TO.P,U201,96,PA11*%
%TO.N,/USB_D-*%
X202250000Y-76500000D03*
%TO.P,U201,97,PA10*%
%TO.N,/USART1_RX*%
X204790000Y-79040000D03*
%TO.P,U201,98,PA9*%
%TO.N,/USART1_TX*%
X204790000Y-76500000D03*
%TO.P,U201,99,PA8*%
%TO.N,unconnected-(U201-PA8-Pad99)*%
X207330000Y-79040000D03*
%TO.P,U201,100,PC9*%
%TO.N,unconnected-(U201-PC9-Pad100)*%
X207330000Y-76500000D03*
%TO.P,U201,101,PC8*%
%TO.N,unconnected-(U201-PC8-Pad101)*%
X209870000Y-79040000D03*
%TO.P,U201,102,NC*%
%TO.N,unconnected-(U201-NC-Pad102)*%
X209870000Y-76500000D03*
%TO.P,U201,103,GND*%
%TO.N,GND*%
X212410000Y-79040000D03*
%TO.P,U201,104,GND*%
X212410000Y-76500000D03*
%TD*%
D15*
%TO.P,REF\u002A\u002A,1*%
%TO.N,GND*%
X225000000Y-55000000D03*
%TD*%
D19*
%TO.P,R201,1*%
%TO.N,/DPP_CH1*%
X126000000Y-167750000D03*
%TO.P,R201,2*%
%TO.N,Net-(U201-PC1)*%
X126000000Y-152510000D03*
%TD*%
D10*
%TO.P,R511,1*%
%TO.N,/PowerLedSheme/+12V*%
X112210000Y-149750000D03*
%TO.P,R511,2*%
%TO.N,Net-(SW502-A)*%
X71570000Y-149750000D03*
%TD*%
D32*
%TO.P,J503,1,Pin_1*%
%TO.N,+5V*%
X225000000Y-112350000D03*
D17*
%TO.P,J503,2,Pin_2*%
X225000000Y-106950000D03*
%TO.P,J503,3,Pin_3*%
X225000000Y-101550000D03*
%TO.P,J503,4,Pin_4*%
X225000000Y-96150000D03*
%TO.P,J503,5,Pin_5*%
X225000000Y-90750000D03*
%TD*%
D33*
%TO.P,D506,1,K*%
%TO.N,Net-(Converter_DCDC-24V/15V501-Vin)*%
X55750000Y-136630000D03*
D28*
%TO.P,D506,2,A*%
%TO.N,Net-(D506-A)*%
X55750000Y-151870000D03*
%TD*%
D10*
%TO.P,R501,1*%
%TO.N,Net-(SW502-A)*%
X88500000Y-56050000D03*
%TO.P,R501,2*%
%TO.N,Net-(D506-A)*%
X88500000Y-81450000D03*
%TD*%
D16*
%TO.P,D504,1,K*%
%TO.N,Net-(D504-K)*%
X217750000Y-172500000D03*
D17*
%TO.P,D504,2,A*%
%TO.N,GND*%
X217750000Y-177900000D03*
%TD*%
D15*
%TO.P,REF\u002A\u002A,1*%
%TO.N,GND*%
X55000000Y-120250000D03*
%TD*%
%TO.P,REF\u002A\u002A,1*%
%TO.N,GND*%
X225000000Y-120000000D03*
%TD*%
D19*
%TO.P,R206,1*%
%TO.N,Net-(U201-PD14)*%
X207250000Y-119120000D03*
%TO.P,R206,2*%
%TO.N,GND*%
X207250000Y-103880000D03*
%TD*%
D21*
%TO.P,C202,1*%
%TO.N,Net-(U201-PC3)*%
X138200000Y-145600000D03*
D19*
%TO.P,C202,2*%
%TO.N,GND*%
X133200000Y-145600000D03*
%TD*%
D24*
%TO.P,C501,1*%
%TO.N,Net-(Converter_DCDC-24V/15V501-Vin)*%
X62347349Y-117250000D03*
D19*
%TO.P,C501,2*%
%TO.N,GND*%
X67347349Y-117250000D03*
%TD*%
D34*
%TO.P,U601,1,IN*%
%TO.N,/+15V*%
X118250000Y-166750000D03*
D35*
%TO.P,U601,2,GND*%
%TO.N,GND*%
X118250000Y-169290000D03*
%TO.P,U601,3,OUT*%
%TO.N,/Connectors/+12V*%
X118250000Y-171830000D03*
%TD*%
D20*
%TO.P,GPS_RS601,0,PAD*%
%TO.N,GND1*%
X179500000Y-180844669D03*
X204500000Y-180844669D03*
D18*
%TO.P,GPS_RS601,1,1*%
%TO.N,unconnected-(GPS_RS601-Pad1)*%
X186460000Y-179424669D03*
D19*
%TO.P,GPS_RS601,2,2*%
%TO.N,/GPS_TxD*%
X189230000Y-179424669D03*
%TO.P,GPS_RS601,3,3*%
%TO.N,/GPS_RxD*%
X192000000Y-179424669D03*
%TO.P,GPS_RS601,4,4*%
%TO.N,unconnected-(GPS_RS601-Pad4)*%
X194770000Y-179424669D03*
%TO.P,GPS_RS601,5,5*%
%TO.N,GND*%
X197540000Y-179424669D03*
%TO.P,GPS_RS601,6,6*%
%TO.N,unconnected-(GPS_RS601-Pad6)*%
X187845000Y-182264669D03*
%TO.P,GPS_RS601,7,7*%
%TO.N,unconnected-(GPS_RS601-Pad7)*%
X190615000Y-182264669D03*
%TO.P,GPS_RS601,8,8*%
%TO.N,unconnected-(GPS_RS601-Pad8)*%
X193385000Y-182264669D03*
%TO.P,GPS_RS601,9,9*%
%TO.N,unconnected-(GPS_RS601-Pad9)*%
X196155000Y-182264669D03*
%TD*%
%TO.P,R203,1*%
%TO.N,/DPP_CH2*%
X138197349Y-168170000D03*
%TO.P,R203,2*%
%TO.N,Net-(U201-PC3)*%
X138197349Y-152930000D03*
%TD*%
D36*
%TO.P,D502,1,K*%
%TO.N,/PowerLedSheme/+12V*%
X62260000Y-65000000D03*
D28*
%TO.P,D502,2,A*%
%TO.N,Net-(D501-K)*%
X77500000Y-65000000D03*
%TD*%
D29*
%TO.P,SW501,1,A*%
%TO.N,Net-(SW501-A)*%
X64750000Y-166900000D03*
D30*
%TO.P,SW501,2,B*%
%TO.N,Net-(SW501-B)*%
X64750000Y-159100000D03*
%TD*%
D13*
%TO.P,Converter_DCDC-12V/5V501,1,Vin*%
%TO.N,Net-(Converter_DCDC-12V/5V501-Vin)*%
X90610151Y-114502500D03*
D14*
%TO.P,Converter_DCDC-12V/5V501,2,GND*%
%TO.N,GND*%
X90610151Y-117042500D03*
%TO.P,Converter_DCDC-12V/5V501,3,Vout*%
%TO.N,+5V*%
X90610151Y-119582500D03*
%TD*%
D15*
%TO.P,REF\u002A\u002A,1*%
%TO.N,GND*%
X55000000Y-55000000D03*
%TD*%
D32*
%TO.P,J504,1,Pin_1*%
%TO.N,/+15V*%
X225000000Y-85250000D03*
D17*
%TO.P,J504,2,Pin_2*%
X225000000Y-79850000D03*
%TO.P,J504,3,Pin_3*%
X225000000Y-74450000D03*
%TO.P,J504,4,Pin_4*%
X225000000Y-69050000D03*
%TO.P,J504,5,Pin_5*%
X225000000Y-63650000D03*
%TD*%
D15*
%TO.P,REF\u002A\u002A,1*%
%TO.N,GND*%
X225000000Y-185000000D03*
%TD*%
%TO.P,REF\u002A\u002A,1*%
%TO.N,GND*%
X117500000Y-184750000D03*
%TD*%
D37*
%TO.P,J502,1,Pin_1*%
%TO.N,/PowerLedSheme/+12V*%
X76650000Y-55500000D03*
D26*
%TO.P,J502,2,Pin_2*%
%TO.N,GND*%
X74110000Y-55500000D03*
%TD*%
D38*
%TO.P,F501,1*%
%TO.N,Net-(SW501-B)*%
X64300000Y-146100000D03*
%TO.P,F501,2*%
%TO.N,Net-(F501-Pad2)*%
X65500000Y-141000000D03*
%TD*%
D19*
%TO.P,R204,1*%
%TO.N,Net-(U201-PC3)*%
X143077349Y-152850000D03*
%TO.P,R204,2*%
%TO.N,GND*%
X143077349Y-168090000D03*
%TD*%
D15*
%TO.P,REF\u002A\u002A,1*%
%TO.N,GND*%
X140250000Y-55250000D03*
%TD*%
D23*
%TO.P,J505,1,Pin_1*%
%TO.N,GND*%
X206150000Y-55000000D03*
D17*
%TO.P,J505,2,Pin_2*%
X200750000Y-55000000D03*
%TO.P,J505,3,Pin_3*%
X195350000Y-55000000D03*
%TO.P,J505,4,Pin_4*%
X189950000Y-55000000D03*
%TO.P,J505,5,Pin_5*%
X184550000Y-55000000D03*
%TD*%
D16*
%TO.P,D503,1,K*%
%TO.N,Net-(D503-K)*%
X210500000Y-172500000D03*
D17*
%TO.P,D503,2,A*%
%TO.N,GND*%
X210500000Y-177900000D03*
%TD*%
D39*
%TO.N,GND*%
X173600000Y-158600000D03*
X196075000Y-159800000D03*
X108500000Y-142000000D03*
X168500000Y-162500000D03*
X103000000Y-139000000D03*
D40*
%TO.N,/PowerLedSheme/+12V*%
X55000000Y-65000000D03*
D39*
%TO.N,/GPS_TxD*%
X197024999Y-161843502D03*
%TO.N,/GPS_RxD*%
X197325000Y-160800000D03*
D40*
%TO.N,/PowerLedSheme/+24V*%
X54750000Y-173000000D03*
D39*
%TO.N,/USART3_TX*%
X113500000Y-117500000D03*
X178500000Y-111750000D03*
%TO.N,/USART2_TX*%
X121000000Y-86000000D03*
X145800000Y-86000000D03*
X113500000Y-86000000D03*
%TO.N,/USART1_RX*%
X194075000Y-166300000D03*
X194575000Y-163550000D03*
%TO.N,/USART2_RX*%
X121000000Y-73500000D03*
X112000000Y-76250000D03*
X145800000Y-73500000D03*
%TO.N,/USART3_RX*%
X151000000Y-137250000D03*
X113500000Y-118500000D03*
%TO.N,Net-(J601-D+)*%
X141000000Y-171750000D03*
%TO.N,+5V*%
X202799000Y-144451000D03*
D40*
X87000000Y-139000000D03*
D39*
X97600000Y-157000000D03*
X104250000Y-114500000D03*
X209250000Y-90750000D03*
X97750000Y-133500000D03*
D40*
%TO.N,/+15V*%
X55000000Y-87500000D03*
D39*
X118500000Y-60000000D03*
X120250000Y-155500000D03*
%TO.N,/Track_Width*%
X145750000Y-103750000D03*
%TD*%
D41*
%TO.N,GND*%
X79152651Y-143750000D02*
X79152651Y-169347349D01*
X80750000Y-100750000D02*
X83000000Y-103000000D01*
X92300000Y-186250000D02*
X92195000Y-186145000D01*
X219750000Y-120000000D02*
X225000000Y-120000000D01*
X199750000Y-186500000D02*
X207500000Y-186500000D01*
X212410000Y-127460000D02*
X212410000Y-125090000D01*
D42*
X103000000Y-139000000D02*
X103000000Y-143500000D01*
D41*
X206150000Y-55000000D02*
X225000000Y-55000000D01*
D42*
X108500000Y-142000000D02*
X108500000Y-143500000D01*
D43*
X141291000Y-176671500D02*
X141250000Y-176712500D01*
D41*
X90610151Y-117042500D02*
X92707500Y-117042500D01*
D42*
X133120000Y-166000000D02*
X131250000Y-167870000D01*
D41*
X55000000Y-55000000D02*
X55500000Y-55500000D01*
D42*
X129800000Y-169320000D02*
X129800000Y-184750000D01*
D41*
X210500000Y-177900000D02*
X217750000Y-177900000D01*
D42*
X133200000Y-145600000D02*
X130200000Y-148600000D01*
D41*
X82500000Y-179250000D02*
X82460000Y-179210000D01*
D42*
X79402651Y-143500000D02*
X79152651Y-143750000D01*
D41*
X140250000Y-55250000D02*
X157150000Y-55250000D01*
X212410000Y-127460000D02*
X212410000Y-130000000D01*
D42*
X196073999Y-171126001D02*
X196073999Y-159801001D01*
D41*
X85652651Y-103000000D02*
X85652651Y-114535000D01*
X58500000Y-80000000D02*
X58250000Y-79750000D01*
D42*
X131250000Y-167870000D02*
X129800000Y-169320000D01*
D41*
X92195000Y-182090000D02*
X92155000Y-182130000D01*
D42*
X118250000Y-169290000D02*
X120310000Y-169290000D01*
D41*
X107000000Y-184750000D02*
X105500000Y-186250000D01*
X62550000Y-184750000D02*
X64750000Y-182550000D01*
D42*
X108500000Y-143500000D02*
X106250000Y-143500000D01*
D41*
X95957500Y-112457633D02*
X95957500Y-83042500D01*
D43*
X197540000Y-179424669D02*
X199750000Y-181634669D01*
D42*
X120902651Y-145250000D02*
X116000000Y-145250000D01*
X140987349Y-166000000D02*
X133120000Y-166000000D01*
D44*
X207250000Y-103880000D02*
X212290000Y-103880000D01*
D41*
X58250000Y-92750000D02*
X55000000Y-96000000D01*
X92195000Y-186145000D02*
X92195000Y-182264669D01*
X133870000Y-76540000D02*
X136370000Y-76540000D01*
X88160151Y-117042500D02*
X90610151Y-117042500D01*
X212410000Y-67590000D02*
X225000000Y-55000000D01*
D42*
X168500000Y-172200000D02*
X168500000Y-175000000D01*
D41*
X82937651Y-117250000D02*
X85652651Y-114535000D01*
X136370000Y-76540000D02*
X136460000Y-76540000D01*
X74110000Y-57310000D02*
X76800000Y-60000000D01*
X75250000Y-87500000D02*
X80750000Y-93000000D01*
X55000000Y-102250000D02*
X55000000Y-120250000D01*
X212410000Y-76500000D02*
X212410000Y-67590000D01*
X62292500Y-102332500D02*
X55082500Y-102332500D01*
D42*
X168500000Y-175000000D02*
X166400000Y-177100000D01*
D43*
X199750000Y-181634669D02*
X199750000Y-186500000D01*
D41*
X55000000Y-55000000D02*
X58250000Y-58250000D01*
X212410000Y-114410000D02*
X212500000Y-114500000D01*
D42*
X195000000Y-172200000D02*
X196073999Y-171126001D01*
D41*
X131000000Y-184750000D02*
X180000000Y-184750000D01*
X67347349Y-87500000D02*
X75250000Y-87500000D01*
X95957500Y-108860714D02*
X106250000Y-108860714D01*
X95957500Y-113792500D02*
X95957500Y-112457633D01*
D42*
X212290000Y-103880000D02*
X212410000Y-104000000D01*
D41*
X79152651Y-169347349D02*
X71210000Y-177290000D01*
X157150000Y-55250000D02*
X157400000Y-55000000D01*
X209000000Y-185000000D02*
X225000000Y-185000000D01*
X120910000Y-130000000D02*
X123410000Y-130000000D01*
X58250000Y-79750000D02*
X58250000Y-92750000D01*
X76800000Y-60000000D02*
X92250000Y-60000000D01*
X92300000Y-186250000D02*
X74000000Y-186250000D01*
X140000000Y-120000000D02*
X145500000Y-114500000D01*
X55000000Y-96000000D02*
X55000000Y-102250000D01*
X123410000Y-130000000D02*
X123410000Y-124340000D01*
X74110000Y-55500000D02*
X74110000Y-57310000D01*
X66000000Y-80000000D02*
X58500000Y-80000000D01*
D42*
X106250000Y-143500000D02*
X103000000Y-143500000D01*
D41*
X92707500Y-117042500D02*
X95957500Y-113792500D01*
X55082500Y-102332500D02*
X55000000Y-102250000D01*
D42*
X124300000Y-165300000D02*
X128680000Y-165300000D01*
D41*
X64750000Y-177290000D02*
X64750000Y-182550000D01*
X92250000Y-60000000D02*
X97750000Y-54500000D01*
D42*
X116000000Y-145250000D02*
X114250000Y-143500000D01*
X120310000Y-169290000D02*
X124300000Y-165300000D01*
D41*
X79152651Y-143750000D02*
X79152651Y-136750000D01*
D42*
X122200000Y-148600000D02*
X120902651Y-147302651D01*
D43*
X162500000Y-177100000D02*
X162071500Y-176671500D01*
D41*
X85652651Y-114535000D02*
X88160151Y-117042500D01*
X55000000Y-184750000D02*
X62550000Y-184750000D01*
D42*
X103000000Y-143500000D02*
X79402651Y-143500000D01*
D41*
X145500000Y-114500000D02*
X212500000Y-114500000D01*
D42*
X120902651Y-147302651D02*
X120902651Y-145250000D01*
D41*
X67347349Y-87500000D02*
X67347349Y-81347349D01*
X80750000Y-93000000D02*
X80750000Y-100750000D01*
X62500000Y-136750000D02*
X79152651Y-136750000D01*
X181500000Y-186250000D02*
X181500000Y-186500000D01*
D42*
X168500000Y-172200000D02*
X195000000Y-172200000D01*
D41*
X55000000Y-129250000D02*
X62500000Y-136750000D01*
X95957500Y-83042500D02*
X99475000Y-79525000D01*
X71210000Y-177290000D02*
X64750000Y-177290000D01*
D42*
X129800000Y-184750000D02*
X131000000Y-184750000D01*
D41*
X105500000Y-186250000D02*
X96250000Y-186250000D01*
X218000000Y-120000000D02*
X219750000Y-120000000D01*
D42*
X168500000Y-160000000D02*
X168500000Y-162500000D01*
D41*
X212410000Y-79040000D02*
X212410000Y-104000000D01*
X58250000Y-58250000D02*
X58250000Y-79750000D01*
X136460000Y-76540000D02*
X140250000Y-72750000D01*
X181500000Y-186500000D02*
X199750000Y-186500000D01*
X180000000Y-184750000D02*
X181500000Y-186250000D01*
X212410000Y-76500000D02*
X212410000Y-79040000D01*
X95957500Y-112457633D02*
X95957500Y-108860714D01*
X67347349Y-117250000D02*
X82937651Y-117250000D01*
D43*
X162071500Y-176671500D02*
X141291000Y-176671500D01*
D41*
X212500000Y-114500000D02*
X218000000Y-120000000D01*
X83000000Y-103000000D02*
X85652651Y-103000000D01*
X139500000Y-54500000D02*
X140250000Y-55250000D01*
D42*
X168500000Y-172200000D02*
X168500000Y-162500000D01*
D41*
X225000000Y-185000000D02*
X225000000Y-177920000D01*
X212410000Y-125090000D02*
X217500000Y-120000000D01*
D42*
X196073999Y-159801001D02*
X196075000Y-159800000D01*
D41*
X117500000Y-184750000D02*
X131000000Y-184750000D01*
X140250000Y-72750000D02*
X140250000Y-55250000D01*
X99475000Y-79525000D02*
X106226190Y-79525000D01*
D42*
X128680000Y-165300000D02*
X131250000Y-167870000D01*
D41*
X70300000Y-182550000D02*
X64750000Y-182550000D01*
X212410000Y-104000000D02*
X212410000Y-114410000D01*
X92155000Y-182130000D02*
X92155000Y-182155000D01*
X117500000Y-184750000D02*
X107000000Y-184750000D01*
X67347349Y-81347349D02*
X66000000Y-80000000D01*
X55000000Y-120250000D02*
X55000000Y-129250000D01*
D42*
X130200000Y-148600000D02*
X122200000Y-148600000D01*
D41*
X123410000Y-124340000D02*
X127750000Y-120000000D01*
X74000000Y-186250000D02*
X70300000Y-182550000D01*
X97750000Y-54500000D02*
X139500000Y-54500000D01*
X225000000Y-177920000D02*
X225020000Y-177900000D01*
X55500000Y-55500000D02*
X74110000Y-55500000D01*
X217500000Y-120000000D02*
X219750000Y-120000000D01*
D42*
X114250000Y-143500000D02*
X108500000Y-143500000D01*
D41*
X96250000Y-186250000D02*
X92300000Y-186250000D01*
D42*
X143077349Y-168090000D02*
X140987349Y-166000000D01*
D41*
X162500000Y-177100000D02*
X162500000Y-185000000D01*
X207500000Y-186500000D02*
X209000000Y-185000000D01*
X79152651Y-136750000D02*
X85652651Y-130250000D01*
D42*
X169900000Y-158600000D02*
X168500000Y-160000000D01*
D41*
X217750000Y-177900000D02*
X225020000Y-177900000D01*
D42*
X166400000Y-177100000D02*
X162500000Y-177100000D01*
D41*
X127750000Y-120000000D02*
X140000000Y-120000000D01*
D42*
X173600000Y-158600000D02*
X169900000Y-158600000D01*
%TO.N,+3.3V*%
X151450000Y-127460000D02*
X151450000Y-130000000D01*
%TO.N,/GPS_TxD*%
X197699999Y-171500001D02*
X195800000Y-173400000D01*
X192400000Y-173400000D02*
X189230000Y-176570000D01*
X189230000Y-176570000D02*
X189230000Y-179424669D01*
X197699999Y-162518502D02*
X197024999Y-161843502D01*
X197699999Y-171500001D02*
X197699999Y-162518502D01*
X195800000Y-173400000D02*
X192400000Y-173400000D01*
%TO.N,/GPS_RxD*%
X192000000Y-179424669D02*
X192000000Y-175800000D01*
X193000000Y-174800000D02*
X196600000Y-174800000D01*
X196600000Y-174800000D02*
X198750000Y-172650000D01*
X192000000Y-175800000D02*
X193000000Y-174800000D01*
X198750000Y-172650000D02*
X198750000Y-162225000D01*
X198750000Y-162225000D02*
X197325000Y-160800000D01*
%TO.N,/DPP_CH1*%
X124000000Y-176750000D02*
X126000000Y-174750000D01*
X96254669Y-176750000D02*
X124000000Y-176750000D01*
X126000000Y-174750000D02*
X126000000Y-167750000D01*
X93580000Y-179424669D02*
X96254669Y-176750000D01*
%TO.N,/USART3_TX*%
X113500000Y-117500000D02*
X132750000Y-117500000D01*
X132750000Y-117500000D02*
X138500000Y-111750000D01*
X138500000Y-111750000D02*
X178500000Y-111750000D01*
%TO.N,/USART2_TX*%
X121000000Y-86000000D02*
X113500000Y-86000000D01*
X197170000Y-84170000D02*
X197170000Y-79040000D01*
X145800000Y-86000000D02*
X195340000Y-86000000D01*
X195340000Y-86000000D02*
X197170000Y-84170000D01*
%TO.N,/USART1_RX*%
X194575000Y-163550000D02*
X194575000Y-165800000D01*
X194575000Y-165800000D02*
X194075000Y-166300000D01*
%TO.N,/USART2_RX*%
X145800000Y-73500000D02*
X148750000Y-73500000D01*
X114750000Y-73500000D02*
X112000000Y-76250000D01*
X152950000Y-69300000D02*
X195000000Y-69300000D01*
X121000000Y-73500000D02*
X114750000Y-73500000D01*
X148750000Y-73500000D02*
X152950000Y-69300000D01*
X197170000Y-71470000D02*
X197170000Y-76500000D01*
X195000000Y-69300000D02*
X197170000Y-71470000D01*
%TO.N,/USART3_RX*%
X151000000Y-137250000D02*
X117500000Y-137250000D01*
X117500000Y-137250000D02*
X114500000Y-134250000D01*
X114500000Y-119500000D02*
X113500000Y-118500000D01*
X114500000Y-134250000D02*
X114500000Y-119500000D01*
%TO.N,Net-(J601-D+)*%
X136962500Y-176712500D02*
X138750000Y-176712500D01*
X135500000Y-175250000D02*
X136962500Y-176712500D01*
X136500000Y-171750000D02*
X135500000Y-172750000D01*
X135500000Y-172750000D02*
X135500000Y-175250000D01*
X141000000Y-171750000D02*
X136500000Y-171750000D01*
%TO.N,Net-(U201-PC1)*%
X125902651Y-145250000D02*
X125902651Y-142097349D01*
X125902651Y-142097349D02*
X129000000Y-139000000D01*
X156530000Y-136970000D02*
X156530000Y-130000000D01*
X154500000Y-139000000D02*
X156530000Y-136970000D01*
X129000000Y-139000000D02*
X154500000Y-139000000D01*
%TO.N,Net-(U201-PC3)*%
X138200000Y-145600000D02*
X154400000Y-145600000D01*
X159070000Y-140930000D02*
X159070000Y-130000000D01*
X154400000Y-145600000D02*
X159070000Y-140930000D01*
D43*
%TO.N,+5V*%
X151450000Y-79040000D02*
X146210000Y-79040000D01*
D42*
X215779000Y-144451000D02*
X217630000Y-142600000D01*
D44*
X97600000Y-159400000D02*
X97600000Y-157000000D01*
D43*
X125500000Y-81750000D02*
X125500000Y-90700000D01*
X125750000Y-82000000D02*
X125500000Y-81750000D01*
X143250000Y-82000000D02*
X125750000Y-82000000D01*
X106226190Y-63325000D02*
X120575000Y-63325000D01*
D44*
X162500000Y-160900000D02*
X116500000Y-160900000D01*
D43*
X104250000Y-113000000D02*
X123250000Y-113000000D01*
X106250000Y-92660714D02*
X125500000Y-92660714D01*
D44*
X116500000Y-160900000D02*
X112600000Y-157000000D01*
D42*
X151450000Y-76500000D02*
X151450000Y-79040000D01*
D43*
X102250000Y-113000000D02*
X104250000Y-113000000D01*
D44*
X112600000Y-157000000D02*
X97600000Y-157000000D01*
D43*
X125500000Y-68250000D02*
X125500000Y-81750000D01*
X120575000Y-63325000D02*
X125500000Y-68250000D01*
D42*
X104250000Y-114500000D02*
X104250000Y-113000000D01*
D44*
X125550000Y-90750000D02*
X125500000Y-90700000D01*
D43*
X125500000Y-90700000D02*
X125500000Y-93250000D01*
X123250000Y-113000000D02*
X125500000Y-110750000D01*
D44*
X209250000Y-90750000D02*
X125550000Y-90750000D01*
D43*
X125500000Y-110750000D02*
X125500000Y-93250000D01*
D44*
X88040000Y-179424669D02*
X88040000Y-168960000D01*
D43*
X146210000Y-79040000D02*
X143250000Y-82000000D01*
D44*
X88040000Y-168960000D02*
X97600000Y-159400000D01*
D43*
X125500000Y-93250000D02*
X125500000Y-92660714D01*
X97750000Y-133500000D02*
X97750000Y-117500000D01*
X97750000Y-117500000D02*
X102250000Y-113000000D01*
D42*
X215779000Y-144451000D02*
X202799000Y-144451000D01*
D44*
%TO.N,/+15V*%
X109525000Y-57925000D02*
X106226190Y-57925000D01*
X120250000Y-155500000D02*
X162500000Y-155500000D01*
X118500000Y-60000000D02*
X111600000Y-60000000D01*
X111600000Y-60000000D02*
X109525000Y-57925000D01*
D42*
%TO.N,/Led_Orange*%
X166200000Y-172600000D02*
X164087500Y-174712500D01*
X164087500Y-174712500D02*
X141250000Y-174712500D01*
X200750000Y-153250000D02*
X199750000Y-154250000D01*
X201750000Y-145750000D02*
X200750000Y-146750000D01*
X224900000Y-142600000D02*
X224900000Y-145000000D01*
X224900000Y-145000000D02*
X224150000Y-145750000D01*
X199750000Y-154250000D02*
X167550000Y-154250000D01*
X166200000Y-155600000D02*
X166200000Y-172600000D01*
X167550000Y-154250000D02*
X166200000Y-155600000D01*
X224150000Y-145750000D02*
X201750000Y-145750000D01*
X200750000Y-146750000D02*
X200750000Y-153250000D01*
%TO.N,/Track_Width*%
X145750000Y-103750000D02*
X200700000Y-103750000D01*
%TD*%
M02*
