M48
; DRILL file {KiCad 9.0.4} date 2025-10-14T13:57:27+0300
; FORMAT={-:-/ absolute / inch / decimal}
; #@! TF.CreationDate,2025-10-14T13:57:27+03:00
; #@! TF.GenerationSoftware,Kicad,Pcbnew,9.0.4
; #@! TF.FileFunction,Plated,1,2,PTH
FMAT,2
INCH
; #@! TA.AperFunction,Plated,PTH,ViaDrill
T1C0.0118
; #@! TA.AperFunction,Plated,PTH,ComponentDrill
T2C0.0315
; #@! TA.AperFunction,Plated,PTH,ComponentDrill
T3C0.0374
; #@! TA.AperFunction,Plated,PTH,ViaDrill
T4C0.0394
; #@! TA.AperFunction,Plated,PTH,ComponentDrill
T5C0.0394
; #@! TA.AperFunction,Plated,PTH,ComponentDrill
T6C0.0398
; #@! TA.AperFunction,Plated,PTH,ComponentDrill
T7C0.0433
; #@! TA.AperFunction,Plated,PTH,ComponentDrill
T8C0.0469
; #@! TA.AperFunction,Plated,PTH,ComponentDrill
T9C0.0472
; #@! TA.AperFunction,Plated,PTH,ComponentDrill
T10C0.0512
; #@! TA.AperFunction,Plated,PTH,ComponentDrill
T11C0.0630
; #@! TA.AperFunction,Plated,PTH,ComponentDrill
T12C0.0689
; #@! TA.AperFunction,Plated,PTH,ComponentDrill
T13C0.0846
; #@! TA.AperFunction,Plated,PTH,ComponentDrill
T14C0.0906
; #@! TA.AperFunction,Plated,PTH,ComponentDrill
T15C0.1260
%
G90
G05
T1
X3.8425Y-6.1811
X3.8484Y-5.2559
X4.0551Y-5.4724
X4.1043Y-4.5079
X4.2717Y-5.5906
X4.4094Y-3.002
X4.4685Y-3.3858
X4.4685Y-4.626
X4.4685Y-4.6654
X4.6654Y-2.3622
X4.7343Y-6.122
X4.7638Y-2.8937
X4.7638Y-3.3858
X5.5512Y-6.7618
X5.7382Y-4.0846
X5.7402Y-2.8937
X5.7402Y-3.3858
X5.9449Y-5.4035
X6.6339Y-6.3976
X6.8346Y-6.2441
X7.0276Y-4.3996
X7.6407Y-6.5472
X7.6604Y-6.439
X7.7195Y-6.2913
X7.7569Y-6.3718
X7.7687Y-6.3307
X7.9842Y-5.687
X8.2382Y-3.5728
T2
X2.4546Y-3.4449
X2.4546Y-4.6161
X2.6515Y-3.4449
X2.6515Y-4.6161
X3.3722Y-4.0551
X3.3722Y-5.128
X3.569Y-4.0551
X3.569Y-5.128
X4.7599Y-5.7185
X4.9568Y-5.7185
X4.9606Y-6.0043
X4.9606Y-6.6043
X5.1673Y-6.0091
X5.1673Y-6.6091
X5.2441Y-5.7323
X5.4408Y-6.0209
X5.4408Y-6.6209
X5.4409Y-5.7323
X5.633Y-6.0177
X5.633Y-6.6177
X7.9016Y-4.0846
X7.9016Y-4.6846
X8.1594Y-4.0898
X8.1594Y-4.6898
T3
X5.4626Y-6.8784
X5.4626Y-6.9572
X5.561Y-6.8784
X5.561Y-6.9572
T4
X2.1555Y-6.811
X2.1654Y-2.5591
X2.1654Y-3.4449
X3.4252Y-5.4724
T5
X3.248Y-7.064
X3.3026Y-7.1758
X3.3571Y-7.064
X3.4116Y-7.1758
X3.4661Y-7.064
X3.5207Y-7.1758
X3.5752Y-7.064
X3.6297Y-7.1758
X3.6843Y-7.064
X4.7602Y-5.1181
X4.8587Y-5.1181
X5.2705Y-3.0134
X5.3689Y-3.0134
X5.9626Y-3.0118
X5.9626Y-3.1118
X5.9626Y-5.0181
X5.9626Y-5.1181
X6.0626Y-3.0118
X6.0626Y-3.1118
X6.0626Y-5.0181
X6.0626Y-5.1181
X6.1626Y-3.0118
X6.1626Y-3.1118
X6.1626Y-5.0181
X6.1626Y-5.1181
X6.2626Y-3.0118
X6.2626Y-3.1118
X6.2626Y-5.0181
X6.2626Y-5.1181
X6.3626Y-3.0118
X6.3626Y-3.1118
X6.3626Y-5.0181
X6.3626Y-5.1181
X6.4626Y-3.0118
X6.4626Y-3.1118
X6.4626Y-5.0181
X6.4626Y-5.1181
X6.5626Y-3.0118
X6.5626Y-3.1118
X6.5626Y-5.0181
X6.5626Y-5.1181
X6.6626Y-3.0118
X6.6626Y-3.1118
X6.6626Y-5.0181
X6.6626Y-5.1181
X6.7626Y-3.0118
X6.7626Y-3.1118
X6.7626Y-5.0181
X6.7626Y-5.1181
X6.8626Y-3.0118
X6.8626Y-3.1118
X6.8626Y-5.0181
X6.8626Y-5.1181
X6.9626Y-3.0118
X6.9626Y-3.1118
X6.9626Y-5.0181
X6.9626Y-5.1181
X7.0626Y-3.0118
X7.0626Y-3.1118
X7.0626Y-5.0181
X7.0626Y-5.1181
X7.1626Y-3.0118
X7.1626Y-3.1118
X7.1626Y-5.0181
X7.1626Y-5.1181
X7.2626Y-3.0118
X7.2626Y-3.1118
X7.2626Y-5.0181
X7.2626Y-5.1181
X7.3409Y-7.064
X7.3626Y-3.0118
X7.3626Y-3.1118
X7.3626Y-5.0181
X7.3626Y-5.1181
X7.3955Y-7.1758
X7.45Y-7.064
X7.4626Y-3.0118
X7.4626Y-3.1118
X7.4626Y-5.0181
X7.4626Y-5.1181
X7.5045Y-7.1758
X7.5591Y-7.064
X7.5626Y-3.0118
X7.5626Y-3.1118
X7.5626Y-5.0181
X7.5626Y-5.1181
X7.6136Y-7.1758
X7.6626Y-3.0118
X7.6626Y-3.1118
X7.6626Y-5.0181
X7.6626Y-5.1181
X7.6681Y-7.064
X7.7226Y-7.1758
X7.7626Y-3.0118
X7.7626Y-3.1118
X7.7626Y-5.0181
X7.7626Y-5.1181
X7.7772Y-7.064
X7.8626Y-3.0118
X7.8626Y-3.1118
X7.8626Y-5.0181
X7.8626Y-5.1181
X7.9626Y-3.0118
X7.9626Y-3.1118
X7.9626Y-5.0181
X7.9626Y-5.1181
X8.0626Y-3.0118
X8.0626Y-3.1118
X8.0626Y-5.0181
X8.0626Y-5.1181
X8.1626Y-3.0118
X8.1626Y-3.1118
X8.1626Y-5.0181
X8.1626Y-5.1181
X8.2626Y-3.0118
X8.2626Y-3.1118
X8.2626Y-5.0181
X8.2626Y-5.1181
X8.3626Y-3.0118
X8.3626Y-3.1118
X8.3626Y-5.0181
X8.3626Y-5.1181
T6
X2.5315Y-5.752
X2.5787Y-5.5512
T7
X4.6555Y-6.565
X4.6555Y-6.665
X4.6555Y-6.765
T8
X2.5492Y-6.8799
X2.5492Y-6.9799
X2.9177Y-2.185
X3.0177Y-2.185
X7.0047Y-5.748
X7.1047Y-5.748
X7.2047Y-5.748
X7.3047Y-5.748
X7.4047Y-5.748
X7.5047Y-5.748
X7.6047Y-5.748
X7.7047Y-5.748
T9
X2.4525Y-3.9288
X2.4525Y-4.0288
X2.4525Y-4.1288
X2.8177Y-5.8957
X2.822Y-6.4075
X3.4843Y-2.2067
X3.4843Y-3.2067
X3.5673Y-4.508
X3.5673Y-4.608
X3.5673Y-4.708
X4.4177Y-5.8957
X4.422Y-6.4075
X8.2827Y-5.6142
X8.2827Y-6.6142
X8.5681Y-5.6142
X8.5681Y-6.6142
X8.8543Y-5.6142
X8.8543Y-6.6142
T10
X2.5591Y-5.0197
X2.5591Y-5.2165
X3.4843Y-3.4449
X3.4843Y-3.6417
T11
X2.1949Y-5.3791
X2.1949Y-5.9791
X2.4512Y-2.5591
X2.4512Y-2.9134
X3.0512Y-2.5591
X3.0512Y-2.9134
T12
X4.1821Y-2.2805
X4.1821Y-2.4931
X4.1821Y-2.7057
X4.1821Y-2.9183
X4.1821Y-3.1309
X4.1831Y-3.4355
X4.1831Y-3.6481
X4.1831Y-3.8607
X4.1831Y-4.0733
X4.1831Y-4.2859
X6.1969Y-2.1654
X6.3976Y-6.122
X6.3976Y-6.3346
X6.3976Y-6.5472
X6.3976Y-6.7598
X6.3976Y-6.9724
X6.4094Y-2.1654
X6.622Y-2.1654
X6.8346Y-2.1654
X7.0472Y-2.1654
X7.2657Y-2.1654
X7.4783Y-2.1654
X7.6909Y-2.1654
X7.9035Y-2.1654
X8.1161Y-2.1654
X8.2874Y-6.7913
X8.2874Y-7.0039
X8.5728Y-6.7913
X8.5728Y-7.0039
X8.8583Y-2.5059
X8.8583Y-2.7185
X8.8583Y-2.9311
X8.8583Y-3.1437
X8.8583Y-3.3563
X8.8583Y-3.5728
X8.8583Y-3.7854
X8.8583Y-3.998
X8.8583Y-4.2106
X8.8583Y-4.4232
X8.8591Y-6.7913
X8.8591Y-7.0039
T13
X2.1949Y-6.2618
X2.1949Y-6.5689
X2.5492Y-6.2638
X2.5492Y-6.5709
T14
X5.2756Y-7.0698
X5.748Y-7.0698
T15
X2.1654Y-2.1654
X2.1654Y-4.7343
X2.1654Y-7.2736
X2.974Y-7.1199
X3.9583Y-7.1199
X4.626Y-7.2736
X5.5118Y-4.7244
X5.5217Y-2.1752
X6.3976Y-7.2835
X7.0669Y-7.1199
X8.0512Y-7.1199
X8.8583Y-2.1654
X8.8583Y-4.7244
X8.8583Y-7.2835
M30
